<?xml version="1.0" encoding="utf-8"?>
<!-- Generator: Adobe Illustrator 22.0.0, SVG Export Plug-In . SVG Version: 6.00 Build 0)  -->
<svg version="1.1" id="Layer_1" xmlns="http://www.w3.org/2000/svg" xmlns:xlink="http://www.w3.org/1999/xlink" x="0px" y="0px"
	 viewBox="0 0 500 500" style="enable-background:new 0 0 500 500;" xml:space="preserve">
<style type="text/css">
	.st0{fill:#AAB1BA;}
	.st1{fill:#FDDF7F;}
	.st2{fill:#ECF4F7;}
	.st3{fill:#83E1E5;}
	.st4{fill:#1C1D21;}
	.st5{fill:none;}
</style>
<g>
	<rect x="233.14" y="119.148" class="st2" width="24.084" height="45.635"/>
</g>
<g>
	<path class="st0" d="M441.364,429.649h-23.738c-11.304,0-21.265,5.74-27.132,14.464c-5.867-8.724-15.829-14.464-27.132-14.464
		h-23.738c-18.046,0-32.676,14.629-32.676,32.676S321.577,495,339.623,495h23.738c11.304,0,21.265-5.74,27.132-14.464
		c5.867,8.724,15.829,14.464,27.132,14.464h23.738c18.046,0,32.676-14.629,32.676-32.676S459.411,429.649,441.364,429.649z"/>
</g>
<g>
	<path class="st0" d="M369.679,82.582v14.511c0,12.168-9.864,22.032-22.032,22.032h-128.47c-12.168,0-22.032-9.864-22.032-22.032
		V82.582c0-12.168,9.864-22.032,22.032-22.032h128.47C359.815,60.55,369.679,70.414,369.679,82.582z"/>
</g>
<g>
	<path class="st2" d="M307.063,464.969H144.48c-0.642,8.009-4.165,15.205-9.541,20.542h181.665
		C311.228,480.174,307.705,472.979,307.063,464.969z"/>
</g>
<g>
	<path class="st0" d="M111.92,429.649H88.182c-18.046,0-32.676,14.629-32.676,32.676S70.136,495,88.182,495h23.738
		c18.046,0,32.676-14.629,32.676-32.676S129.967,429.649,111.92,429.649z"/>
</g>
<g>
	<path class="st0" d="M439.731,195.456h-56.69v-18.225c0-6.875-5.573-12.448-12.448-12.448H113.336
		c-18.98,0-34.367,15.387-34.367,34.367v97.24c0,18.98,15.387,34.367,34.367,34.367h50.265v14.157c0,5.359,4.344,9.704,9.704,9.704
		h103.675c5.359,0,9.704-4.344,9.704-9.704v-14.157h83.91c6.875,0,12.448-5.573,12.448-12.448v-18.224h56.69
		c4.334,0,7.847-3.513,7.847-7.847v-88.935C447.578,198.969,444.065,195.456,439.731,195.456z"/>
</g>
<g>
	<rect x="209.522" y="354.618" class="st2" width="31.24" height="75.031"/>
</g>
<g>
	<path class="st0" d="M276.482,464.97h-102.68v-27.466c0-4.338,3.516-7.854,7.854-7.854h86.971c4.338,0,7.854,3.516,7.854,7.854
		V464.97z"/>
</g>
<g>
	<path class="st3" d="M396.093,221.701c2.16,0,3.91,1.751,3.91,3.91v44.318c0,2.16-1.751,3.91-3.91,3.91h-44.494
		c-2.16,0-3.91-1.751-3.91-3.91v-44.318c0-2.16,1.751-3.91,3.91-3.91H396.093z"/>
</g>
<g>
	<circle class="st2" cx="88.182" cy="462.324" r="12.128"/>
</g>
<g>
	<circle class="st2" cx="339.623" cy="462.324" r="12.128"/>
</g>
<path class="st4" d="M441.364,424.649h-23.738c-10.35,0-20.102,4.237-27.145,11.562c-6.858-7.12-16.477-11.562-27.12-11.562h-23.738
	c-19.983,0-36.374,15.64-37.595,35.32H149.515c-1.221-19.681-17.612-35.32-37.595-35.32H88.182
	c-20.774,0-37.676,16.901-37.676,37.676c0,10.932,4.684,20.787,12.146,27.675h-15.6c-2.761,0-5,2.239-5,5s2.239,5,5,5h41.13h23.738
	c9.568,0,18.308-3.591,24.96-9.488h177.782c6.652,5.897,15.393,9.488,24.961,9.488h23.738c10.643,0,20.261-4.443,27.12-11.563
	c7.044,7.326,16.795,11.563,27.145,11.563h23.738c20.774,0,37.676-16.901,37.676-37.676S462.139,424.649,441.364,424.649z
	 M339.623,434.649c2.861,0,5.623,0.437,8.221,1.246c11.259,3.51,19.454,14.03,19.455,26.429c0,12.399-8.196,22.92-19.455,26.429
	c-2.598,0.81-5.359,1.246-8.221,1.246c-7.758,0-14.777-3.213-19.807-8.373c-0.355-0.364-0.698-0.738-1.031-1.119
	c-0.162-0.185-0.326-0.368-0.483-0.557c-0.389-0.47-0.758-0.955-1.114-1.448c-0.125-0.172-0.249-0.345-0.37-0.52
	c-0.368-0.537-0.719-1.085-1.048-1.645c-0.077-0.13-0.152-0.262-0.227-0.394c-0.35-0.618-0.68-1.247-0.981-1.89
	c-0.028-0.059-0.053-0.119-0.081-0.178c-1.339-2.916-2.176-6.063-2.436-9.306c0-0.003-0.001-0.005-0.001-0.008
	c-0.059-0.739-0.098-1.483-0.098-2.237C311.947,447.064,324.363,434.649,339.623,434.649z M60.506,462.325
	c0-15.26,12.416-27.676,27.676-27.676c2.861,0,5.623,0.437,8.221,1.246c11.259,3.51,19.454,14.03,19.455,26.429
	c0,12.399-8.196,22.92-19.455,26.429c-2.598,0.81-5.359,1.246-8.221,1.246C72.922,490,60.506,477.585,60.506,462.325z
	 M114.228,489.508c0.255-0.244,0.509-0.487,0.757-0.738c0.191-0.194,0.377-0.393,0.564-0.591c0.238-0.252,0.475-0.503,0.706-0.761
	c0.184-0.206,0.363-0.417,0.543-0.627c0.223-0.26,0.444-0.521,0.66-0.787c0.176-0.217,0.347-0.438,0.518-0.659
	c0.208-0.269,0.415-0.539,0.616-0.813c0.167-0.228,0.329-0.458,0.491-0.69c0.193-0.277,0.384-0.555,0.57-0.838
	c0.157-0.238,0.31-0.478,0.462-0.719c0.179-0.285,0.354-0.573,0.526-0.863c0.145-0.246,0.288-0.494,0.428-0.744
	c0.165-0.295,0.325-0.592,0.483-0.891c0.133-0.253,0.264-0.507,0.392-0.764c0.151-0.304,0.297-0.612,0.44-0.921
	c0.12-0.259,0.24-0.519,0.354-0.782c0.137-0.313,0.266-0.63,0.394-0.948c0.107-0.266,0.214-0.531,0.316-0.799
	c0.122-0.323,0.235-0.65,0.348-0.977c0.093-0.27,0.188-0.539,0.275-0.811c0.107-0.334,0.204-0.672,0.302-1.01
	c0.079-0.272,0.16-0.542,0.232-0.817c0.092-0.346,0.172-0.697,0.254-1.047c0.064-0.272,0.131-0.543,0.189-0.818
	c0.076-0.362,0.14-0.728,0.206-1.094c0.048-0.268,0.102-0.534,0.144-0.803c0.061-0.386,0.107-0.777,0.156-1.167
	c0.032-0.254,0.07-0.507,0.097-0.763c0.045-0.433,0.074-0.87,0.105-1.307c0.015-0.218,0.038-0.433,0.05-0.652
	c0.034-0.657,0.053-1.318,0.053-1.984v0v0c0-0.003,0-0.007,0-0.01c0-0.662-0.018-1.319-0.052-1.973
	c-0.012-0.226-0.036-0.448-0.051-0.673c-0.03-0.429-0.058-0.859-0.103-1.285c-0.028-0.263-0.067-0.523-0.1-0.784
	c-0.048-0.382-0.094-0.766-0.153-1.144c-0.043-0.277-0.098-0.55-0.148-0.825c-0.065-0.358-0.127-0.717-0.201-1.072
	c-0.059-0.282-0.129-0.56-0.194-0.839c-0.08-0.343-0.159-0.686-0.249-1.024c-0.075-0.282-0.158-0.559-0.239-0.838
	c-0.096-0.33-0.191-0.661-0.295-0.987c-0.09-0.28-0.187-0.556-0.283-0.834c-0.11-0.319-0.221-0.638-0.34-0.954
	c-0.104-0.275-0.214-0.547-0.323-0.819c-0.126-0.311-0.252-0.621-0.386-0.928c-0.117-0.269-0.24-0.535-0.363-0.801
	c-0.14-0.302-0.282-0.603-0.43-0.9c-0.13-0.263-0.265-0.523-0.401-0.782c-0.154-0.293-0.311-0.584-0.473-0.873
	c-0.143-0.255-0.289-0.509-0.438-0.76c-0.168-0.285-0.34-0.567-0.516-0.846c-0.155-0.246-0.311-0.491-0.471-0.734
	c-0.183-0.277-0.37-0.551-0.56-0.823c-0.165-0.236-0.331-0.472-0.501-0.704c-0.197-0.27-0.4-0.535-0.604-0.799
	c-0.175-0.226-0.349-0.451-0.529-0.673c-0.212-0.261-0.43-0.517-0.648-0.773c-0.184-0.215-0.366-0.43-0.555-0.64
	c-0.226-0.253-0.459-0.499-0.691-0.745c-0.192-0.203-0.382-0.408-0.579-0.607c-0.243-0.246-0.492-0.484-0.742-0.724
	c-0.152-0.146-0.297-0.297-0.451-0.44c14.393,0.964,25.809,12.98,25.809,27.613c0,0.749-0.037,1.489-0.096,2.222
	c-0.001,0.008-0.003,0.015-0.004,0.023c-0.263,3.28-1.111,6.463-2.478,9.407c-0.004,0.01-0.009,0.019-0.014,0.029
	c-0.327,0.702-0.686,1.389-1.071,2.062c-0.034,0.058-0.068,0.116-0.102,0.175c-0.336,0.577-0.699,1.138-1.077,1.691
	c-0.103,0.15-0.203,0.301-0.309,0.449c-0.344,0.483-0.71,0.951-1.086,1.412c-0.153,0.188-0.305,0.377-0.463,0.561
	c-0.368,0.429-0.756,0.843-1.152,1.25c-4.625,4.754-10.935,7.861-17.958,8.332C113.938,489.798,114.08,489.65,114.228,489.508z
	 M144.911,480.512c0.022-0.04,0.039-0.081,0.061-0.121c0.399-0.727,0.769-1.471,1.12-2.226c0.059-0.127,0.116-0.255,0.174-0.383
	c0.73-1.615,1.348-3.289,1.847-5.015c0.011-0.038,0.022-0.076,0.032-0.114c0.252-0.883,0.482-1.776,0.67-2.684h153.913
	c0.188,0.907,0.417,1.798,0.669,2.68c0.012,0.041,0.023,0.081,0.035,0.122c0.498,1.722,1.115,3.392,1.843,5.004
	c0.059,0.132,0.118,0.264,0.179,0.395c0.35,0.752,0.719,1.493,1.116,2.217c0.022,0.041,0.04,0.084,0.063,0.125H144.911z
	 M365.229,489.938c0.15-0.14,0.292-0.288,0.441-0.43c0.255-0.244,0.509-0.487,0.757-0.738c0.191-0.194,0.377-0.393,0.564-0.591
	c0.238-0.252,0.475-0.503,0.706-0.761c0.184-0.206,0.363-0.417,0.543-0.627c0.223-0.26,0.444-0.521,0.66-0.787
	c0.176-0.217,0.347-0.438,0.518-0.659c0.208-0.269,0.415-0.539,0.616-0.813c0.167-0.228,0.329-0.458,0.491-0.69
	c0.193-0.277,0.384-0.555,0.57-0.838c0.157-0.238,0.31-0.478,0.462-0.719c0.179-0.285,0.354-0.573,0.526-0.863
	c0.145-0.246,0.288-0.494,0.428-0.744c0.165-0.295,0.325-0.592,0.483-0.891c0.133-0.253,0.264-0.507,0.392-0.764
	c0.151-0.304,0.297-0.612,0.44-0.921c0.12-0.259,0.24-0.519,0.354-0.782c0.137-0.313,0.266-0.63,0.394-0.948
	c0.107-0.266,0.214-0.531,0.316-0.799c0.122-0.323,0.235-0.65,0.348-0.977c0.093-0.27,0.188-0.539,0.275-0.811
	c0.107-0.334,0.204-0.672,0.302-1.01c0.079-0.272,0.16-0.542,0.232-0.817c0.092-0.346,0.172-0.697,0.254-1.047
	c0.064-0.272,0.131-0.543,0.189-0.818c0.076-0.362,0.14-0.728,0.206-1.094c0.048-0.268,0.102-0.534,0.144-0.803
	c0.061-0.386,0.107-0.777,0.156-1.167c0.032-0.254,0.07-0.507,0.097-0.763c0.045-0.433,0.074-0.87,0.105-1.307
	c0.015-0.218,0.038-0.433,0.05-0.652c0.034-0.657,0.053-1.318,0.053-1.984v0v0c0-0.003,0-0.007,0-0.01
	c0-0.662-0.018-1.319-0.052-1.973c-0.012-0.226-0.036-0.448-0.051-0.673c-0.03-0.429-0.058-0.859-0.103-1.285
	c-0.028-0.263-0.067-0.523-0.1-0.784c-0.048-0.382-0.094-0.766-0.153-1.144c-0.043-0.277-0.098-0.55-0.148-0.825
	c-0.065-0.358-0.127-0.717-0.201-1.072c-0.059-0.282-0.129-0.56-0.194-0.839c-0.08-0.343-0.159-0.686-0.249-1.024
	c-0.075-0.282-0.158-0.559-0.239-0.838c-0.096-0.33-0.191-0.661-0.295-0.987c-0.09-0.28-0.187-0.556-0.283-0.834
	c-0.11-0.319-0.221-0.638-0.34-0.954c-0.104-0.275-0.214-0.547-0.323-0.819c-0.126-0.311-0.252-0.621-0.386-0.928
	c-0.117-0.269-0.24-0.535-0.363-0.801c-0.14-0.302-0.282-0.603-0.43-0.9c-0.13-0.263-0.265-0.523-0.401-0.782
	c-0.154-0.293-0.311-0.584-0.473-0.873c-0.143-0.255-0.289-0.509-0.438-0.76c-0.168-0.285-0.34-0.567-0.516-0.846
	c-0.155-0.246-0.311-0.491-0.471-0.734c-0.183-0.277-0.37-0.551-0.56-0.823c-0.165-0.236-0.331-0.472-0.501-0.704
	c-0.197-0.27-0.4-0.535-0.604-0.799c-0.175-0.226-0.349-0.451-0.529-0.673c-0.212-0.261-0.43-0.517-0.648-0.773
	c-0.184-0.215-0.366-0.43-0.555-0.64c-0.226-0.253-0.459-0.499-0.691-0.745c-0.192-0.203-0.382-0.408-0.579-0.607
	c-0.243-0.246-0.492-0.484-0.742-0.724c-0.152-0.146-0.297-0.297-0.451-0.44c8.946,0.599,16.74,5.471,21.36,12.585
	c0.161,0.248,0.314,0.5,0.467,0.752c0.231,0.383,0.454,0.771,0.667,1.166c0.135,0.25,0.267,0.502,0.394,0.756
	c0.127,0.254,0.255,0.507,0.375,0.766c0.203,0.439,0.395,0.884,0.574,1.333c0.092,0.23,0.177,0.465,0.263,0.698
	c0.13,0.354,0.253,0.71,0.369,1.069c0.061,0.188,0.126,0.375,0.183,0.565c0.155,0.519,0.291,1.043,0.415,1.571
	c0.043,0.184,0.083,0.369,0.123,0.554c0.108,0.507,0.206,1.016,0.285,1.529c0.011,0.072,0.026,0.143,0.037,0.215
	c0.086,0.586,0.148,1.177,0.196,1.77c0.013,0.152,0.023,0.304,0.033,0.457c0.04,0.607,0.067,1.216,0.067,1.829
	s-0.028,1.222-0.067,1.829c-0.01,0.152-0.021,0.305-0.033,0.457c-0.049,0.593-0.11,1.184-0.196,1.771
	c-0.011,0.072-0.026,0.142-0.037,0.214c-0.08,0.514-0.177,1.024-0.286,1.532c-0.04,0.185-0.079,0.369-0.122,0.552
	c-0.124,0.528-0.26,1.053-0.415,1.572c-0.057,0.189-0.122,0.374-0.182,0.561c-0.116,0.36-0.24,0.718-0.371,1.073
	c-0.086,0.233-0.171,0.466-0.263,0.696c-0.18,0.449-0.371,0.894-0.575,1.334c-0.119,0.258-0.247,0.51-0.373,0.763
	c-0.128,0.255-0.26,0.507-0.396,0.759c-0.213,0.394-0.435,0.782-0.667,1.164c-0.152,0.252-0.305,0.504-0.466,0.751
	C381.97,484.467,374.175,489.338,365.229,489.938z M396.519,480.225c0.223-0.412,0.422-0.834,0.628-1.253
	c0.067-0.135,0.137-0.268,0.202-0.403c0.192-0.401,0.372-0.806,0.549-1.213c0.102-0.234,0.203-0.469,0.301-0.705
	c0.157-0.38,0.309-0.762,0.453-1.147c0.107-0.285,0.205-0.573,0.305-0.861c0.123-0.356,0.25-0.71,0.362-1.069
	c0.192-0.612,0.37-1.23,0.531-1.855c0.067-0.259,0.12-0.521,0.181-0.782c0.102-0.436,0.202-0.873,0.289-1.315
	c0.055-0.282,0.103-0.565,0.152-0.849c0.075-0.434,0.144-0.871,0.204-1.31c0.006-0.046,0.015-0.091,0.021-0.138h18.302
	c2.761,0,5-2.239,5-5s-2.239-5-5-5h-18.302c-0.006-0.046-0.015-0.092-0.021-0.138c-0.06-0.439-0.129-0.876-0.204-1.31
	c-0.049-0.283-0.097-0.567-0.152-0.849c-0.087-0.442-0.187-0.879-0.289-1.315c-0.061-0.261-0.115-0.523-0.181-0.782
	c-0.161-0.625-0.339-1.243-0.531-1.855c-0.112-0.359-0.239-0.712-0.362-1.067c-0.1-0.289-0.199-0.578-0.306-0.864
	c-0.143-0.384-0.296-0.765-0.452-1.144c-0.098-0.238-0.2-0.475-0.303-0.711c-0.177-0.405-0.356-0.808-0.547-1.207
	c-0.068-0.141-0.141-0.28-0.211-0.42c-0.205-0.414-0.401-0.831-0.621-1.238c5.233-6.17,12.919-9.775,21.107-9.775
	c15.26,0,27.676,12.415,27.676,27.675S432.886,490,417.626,490C409.438,490,401.753,486.395,396.519,480.225z M443.231,489.938
	c0.151-0.14,0.293-0.289,0.442-0.431c0.254-0.243,0.508-0.486,0.755-0.736c0.193-0.195,0.379-0.396,0.567-0.595
	c0.236-0.25,0.472-0.5,0.701-0.756c0.186-0.208,0.367-0.421,0.549-0.634c0.221-0.258,0.44-0.516,0.654-0.78
	c0.178-0.22,0.351-0.443,0.525-0.667c0.205-0.265,0.409-0.532,0.608-0.803c0.169-0.231,0.335-0.466,0.499-0.701
	c0.191-0.273,0.378-0.548,0.562-0.826c0.159-0.241,0.315-0.485,0.469-0.73c0.177-0.281,0.35-0.565,0.519-0.852
	c0.148-0.25,0.292-0.501,0.434-0.754c0.163-0.291,0.321-0.584,0.476-0.879c0.136-0.258,0.269-0.517,0.399-0.778
	c0.148-0.299,0.291-0.6,0.431-0.903c0.123-0.265,0.245-0.53,0.361-0.798c0.134-0.308,0.262-0.62,0.388-0.933
	c0.109-0.27,0.218-0.54,0.321-0.813c0.12-0.318,0.231-0.639,0.343-0.961c0.095-0.275,0.192-0.55,0.281-0.828
	c0.105-0.328,0.201-0.661,0.297-0.993c0.08-0.277,0.163-0.552,0.237-0.831c0.091-0.342,0.17-0.689,0.252-1.035
	c0.065-0.276,0.133-0.55,0.192-0.829c0.075-0.357,0.138-0.719,0.203-1.079c0.049-0.273,0.103-0.544,0.147-0.819
	c0.06-0.38,0.106-0.766,0.154-1.15c0.033-0.26,0.072-0.517,0.099-0.778c0.045-0.429,0.074-0.863,0.104-1.296
	c0.015-0.221,0.039-0.44,0.05-0.662c0.034-0.657,0.053-1.318,0.053-1.984s-0.019-1.327-0.053-1.984
	c-0.012-0.222-0.035-0.441-0.05-0.662c-0.03-0.433-0.059-0.867-0.104-1.296c-0.027-0.261-0.067-0.518-0.099-0.778
	c-0.048-0.385-0.094-0.77-0.154-1.15c-0.043-0.275-0.097-0.545-0.146-0.818c-0.065-0.361-0.128-0.722-0.203-1.08
	c-0.059-0.278-0.127-0.552-0.192-0.828c-0.081-0.346-0.161-0.693-0.252-1.036c-0.074-0.278-0.156-0.553-0.236-0.829
	c-0.096-0.333-0.193-0.667-0.298-0.996c-0.089-0.277-0.185-0.551-0.28-0.826c-0.111-0.322-0.223-0.644-0.343-0.961
	c-0.103-0.273-0.212-0.543-0.321-0.813c-0.126-0.313-0.254-0.624-0.388-0.933c-0.117-0.268-0.238-0.532-0.361-0.796
	c-0.141-0.304-0.284-0.606-0.433-0.906c-0.129-0.26-0.263-0.518-0.398-0.775c-0.156-0.296-0.314-0.589-0.477-0.881
	c-0.142-0.253-0.286-0.504-0.434-0.753c-0.169-0.287-0.343-0.571-0.519-0.852c-0.154-0.245-0.309-0.488-0.468-0.729
	c-0.184-0.278-0.372-0.553-0.563-0.827c-0.164-0.235-0.329-0.469-0.499-0.701c-0.198-0.27-0.401-0.536-0.606-0.801
	c-0.174-0.225-0.348-0.45-0.528-0.671c-0.212-0.262-0.431-0.519-0.65-0.775c-0.183-0.214-0.365-0.428-0.552-0.637
	c-0.227-0.254-0.461-0.501-0.695-0.749c-0.191-0.202-0.381-0.406-0.577-0.604c-0.242-0.245-0.491-0.483-0.74-0.722
	c-0.152-0.146-0.299-0.299-0.453-0.442c14.393,0.964,25.808,12.98,25.808,27.613C469.04,476.957,457.625,488.974,443.231,489.938z
	 M247.997,16.535c0-2.761,2.239-5,5-5h6.535V5c0-2.761,2.239-5,5-5s5,2.239,5,5v6.535h6.534c2.761,0,5,2.239,5,5s-2.239,5-5,5
	h-6.534v6.534c0,2.761-2.239,5-5,5s-5-2.239-5-5v-6.534h-6.535C250.235,21.535,247.997,19.296,247.997,16.535z M405.733,128.148
	c0-2.761,2.239-5,5-5h6.535v-6.534c0-2.761,2.239-5,5-5s5,2.239,5,5v6.534h6.534c2.761,0,5,2.239,5,5s-2.239,5-5,5h-6.534v6.535
	c0,2.761-2.239,5-5,5s-5-2.239-5-5v-6.535h-6.535C407.972,133.148,405.733,130.909,405.733,128.148z M113.336,335.757h45.265v9.157
	c0,8.107,6.596,14.704,14.704,14.704h31.218v65.031h-22.866c-7.088,0-12.854,5.766-12.854,12.854v12.892c0,2.761,2.239,5,5,5
	s5-2.239,5-5v-12.892c0-1.574,1.281-2.854,2.854-2.854h86.971c1.574,0,2.854,1.28,2.854,2.854v12.892c0,2.761,2.239,5,5,5
	s5-2.239,5-5v-12.892c0-7.088-5.766-12.854-12.854-12.854h-22.866v-65.031h31.217c8.107,0,14.704-6.596,14.704-14.704v-9.157h78.91
	c9.621,0,17.448-7.827,17.448-17.448v-13.225h51.689c7.084,0,12.847-5.763,12.847-12.847v-88.934
	c0-7.084-5.763-12.847-12.847-12.847h-51.689v-13.225c0-9.621-7.827-17.448-17.448-17.448h-93.614h-14.755v-35.658h16.125v3.888
	c0,2.761,2.239,5,5,5s5-2.239,5-5v-3.888h13.893v3.888c0,2.761,2.239,5,5,5s5-2.239,5-5v-3.888h13.893v3.888c0,2.761,2.239,5,5,5
	s5-2.239,5-5v-3.888h11.513c14.905,0,27.032-12.126,27.032-27.032V82.582c0-14.905-12.126-27.032-27.032-27.032h-11.513v-3.978
	c0-2.761-2.239-5-5-5s-5,2.239-5,5v3.978h-13.893v-3.978c0-2.761-2.239-5-5-5s-5,2.239-5,5v3.978h-13.893v-3.978
	c0-2.761-2.239-5-5-5s-5,2.239-5,5v3.978h-59.171c-14.906,0-27.032,12.126-27.032,27.032v14.511
	c0,14.906,12.126,27.032,27.032,27.032h8.963v35.658H113.336c-21.707,0-39.367,17.66-39.367,39.367v97.241
	C73.969,318.098,91.629,335.757,113.336,335.757z M202.145,97.093V82.582c0-9.391,7.641-17.032,17.032-17.032h59.171v6.553
	c0,2.761,2.239,5,5,5s5-2.239,5-5V65.55h13.893v6.553c0,2.761,2.239,5,5,5s5-2.239,5-5V65.55h13.893v6.553c0,2.761,2.239,5,5,5
	s5-2.239,5-5V65.55h11.513c9.391,0,17.032,7.641,17.032,17.032v14.511c0,9.392-7.641,17.032-17.032,17.032h-11.513v-6.643
	c0-2.761-2.239-5-5-5s-5,2.239-5,5v6.643h-13.893v-6.643c0-2.761-2.239-5-5-5s-5,2.239-5,5v6.643h-13.893v-6.643
	c0-2.761-2.239-5-5-5s-5,2.239-5,5v6.643h-59.171C209.786,114.125,202.145,106.484,202.145,97.093z M235.762,424.649h-21.24v-65.031
	h21.24V424.649z M281.683,344.915c0,2.594-2.11,4.704-4.704,4.704h-36.217h-31.24h-36.218c-2.594,0-4.704-2.11-4.704-4.704v-9.157
	h108.378h4.704V344.915z M355.536,295.084c-0.196,0-0.388-0.02-0.573-0.058c-1.296-0.266-2.274-1.416-2.274-2.789v-13.398h43.327
	l15.818,16.245h-28.793H355.536z M383.041,200.456h28.793l-15.818,16.245h-43.327v-13.398c0-1.374,0.978-2.523,2.274-2.789
	c0.185-0.038,0.377-0.058,0.573-0.058H383.041z M352.689,226.701h42.314v42.138h-42.314V226.701z M442.578,203.303v88.934
	c0,1.57-1.277,2.847-2.847,2.847h-13.939l-21.388-21.966c0.382-0.992,0.6-2.064,0.6-3.189v-44.318c0-1.125-0.218-2.197-0.6-3.189
	l21.388-21.966h13.939C441.3,200.456,442.578,201.733,442.578,203.303z M378.041,177.231v13.225h-22.505h-19.955
	c-7.431,0-14.474,2.835-19.833,7.983l-20.458,19.656c-1.991,1.913-2.054,5.079-0.141,7.07c0.982,1.021,2.293,1.536,3.606,1.536
	c1.246,0,2.494-0.463,3.464-1.395l20.458-19.656c3.487-3.35,8.07-5.194,12.905-5.194h7.436c-0.209,0.917-0.329,1.867-0.329,2.847v0
	v22.308v44.318v22.308v0c0,0.979,0.12,1.93,0.329,2.847h-7.436c-4.835,0-9.418-1.845-12.904-5.194l-20.458-19.656
	c-1.991-1.913-5.156-1.85-7.07,0.141c-1.913,1.991-1.85,5.157,0.141,7.07l20.458,19.656c5.358,5.148,12.402,7.983,19.833,7.983
	h19.955h22.505v13.225c0,4.107-3.341,7.448-7.448,7.448h-83.91h-9.704c-4.107,0-7.448-3.341-7.448-7.448V177.231
	c0-4.107,3.341-7.448,7.448-7.448h93.614C374.7,169.783,378.041,173.125,378.041,177.231z M238.14,124.148h14.083v35.635H238.14
	V124.148z M83.969,199.15c0-16.193,13.174-29.367,29.367-29.367H233.14h24.083h3.979c-0.047,0.099-0.08,0.205-0.125,0.304
	c-0.144,0.32-0.274,0.646-0.399,0.976c-0.089,0.235-0.18,0.469-0.26,0.708c-0.114,0.346-0.209,0.699-0.302,1.054
	c-0.061,0.234-0.129,0.465-0.181,0.702c-0.086,0.397-0.146,0.802-0.205,1.209c-0.03,0.206-0.072,0.407-0.094,0.614
	c-0.067,0.618-0.105,1.244-0.105,1.88v141.078c0,0.635,0.039,1.262,0.105,1.88c0.022,0.208,0.064,0.409,0.094,0.614
	c0.059,0.406,0.119,0.812,0.205,1.209c0.052,0.238,0.12,0.468,0.181,0.702c0.093,0.355,0.188,0.708,0.302,1.054
	c0.079,0.24,0.171,0.474,0.26,0.709c0.125,0.329,0.255,0.656,0.399,0.975c0.045,0.1,0.078,0.206,0.125,0.304h-97.602h-50.265
	c-16.193,0-29.367-13.174-29.367-29.367V199.15z M105.31,462.325c0-9.444-7.683-17.128-17.127-17.128s-17.128,7.684-17.128,17.128
	s7.684,17.127,17.128,17.127S105.31,471.769,105.31,462.325z M88.182,469.452c-3.93,0-7.128-3.197-7.128-7.127
	s3.198-7.128,7.128-7.128s7.127,3.198,7.127,7.128S92.112,469.452,88.182,469.452z M339.623,479.452
	c9.444,0,17.127-7.683,17.127-17.127s-7.683-17.128-17.127-17.128s-17.128,7.684-17.128,17.128S330.179,479.452,339.623,479.452z
	 M339.623,455.197c3.93,0,7.127,3.198,7.127,7.128s-3.197,7.127-7.127,7.127s-7.128-3.197-7.128-7.127
	S335.693,455.197,339.623,455.197z M34.535,495c0,2.761-2.239,5-5,5H25.96c-2.761,0-5-2.239-5-5s2.239-5,5-5h3.575
	C32.296,490,34.535,492.239,34.535,495z"/>
</svg>
