<?xml version="1.0" encoding="utf-8"?>
<!-- Generator: Adobe Illustrator 27.5.0, SVG Export Plug-In . SVG Version: 6.00 Build 0)  -->
<svg version="1.1" xmlns="http://www.w3.org/2000/svg" xmlns:xlink="http://www.w3.org/1999/xlink" x="0px" y="0px"
	 viewBox="0 0 500 500" style="enable-background:new 0 0 500 500;" xml:space="preserve">
<g id="BACKGROUND">
	<g>
		<g>
			<g>
				<rect y="-0.004" style="fill:#FFFFFF;" width="500" height="500"/>
			</g>
		</g>
	</g>
</g>
<g id="OBJECTS">
	<g>
		<g>
			<path style="fill:#4CA5A2;" d="M39.868,356.727c0,0,2.449-5.217-1.065-7.986c-3.514-2.768-10.221-6.814-8.411-8.624
				c1.81-1.81,3.514,2.449,6.069,1.278c2.555-1.171,1.597-15.226-1.491-19.165c-3.088-3.939-5.643-6.282-3.407-8.944
				c2.236-2.662,4.259,5.537,7.24,3.833c2.981-1.704-5.217-13.203-3.301-19.059c1.917-5.856,7.027-5.004,6.495-0.639
				c-0.532,4.365-0.745,13.629,1.917,17.036c2.662,3.407,9.476-8.411,9.476-2.023s-6.282,11.286-6.601,20.017
				c-0.319,8.731-1.278,10.967,1.917,9.05c3.194-1.917,6.282,0.532,3.407,3.407c-2.875,2.875-6.069,7.453-4.898,10.86
				L39.868,356.727z"/>
			<path style="fill:#68BCBC;" d="M40.875,356.23c0,0,3.43-8.376-3.757-14.764c-7.187-6.388-9.147-15.048-6.044-16.468
				c3.104-1.42,3.43,5.395,5.717,7.666c2.287,2.271,4.41-4.827,3.594-8.518c-0.817-3.691-6.534-9.37-2.94-13.487
				c3.594-4.117,3.594,4.401,5.554,6.672c1.96,2.271,5.717-6.104,4.9-10.221c-0.817-4.117-1.797-12.919,2.287-11.073
				c4.084,1.845,4.247,11.073,0.653,16.326c-3.593,5.253-6.207,9.512-5.39,12.777s2.45,3.123,4.737-0.426
				c2.287-3.549,5.227-4.259,5.227,0.426c0,4.685-12.577,16.61-9.801,31.232L40.875,356.23z"/>
			<path style="fill:none;stroke:#4CA5A2;stroke-width:1.1938;stroke-linecap:round;stroke-miterlimit:10;" d="M43.381,355.023
				c0,0,1.917-10.008,0.319-18.313c-1.597-8.305-1.384-14.374-0.213-16.397"/>
			<polygon style="fill:#6097B2;" points="52.458,373.656 53.989,357.33 32.978,357.33 34.509,373.656 			"/>
			<polygon style="fill:#8BBDDB;" points="55.014,358.324 55.4,354.207 31.567,354.207 31.953,358.324 			"/>
		</g>
		<g>
			<path style="fill:#4CA5A2;" d="M410.745,350.919c20.166,4.457,41.54-9.149,41.792-17.213c0.253-8.064-19.349,8.678-22.191,0.471
				c-2.842-8.208,21.323-11.503,21.665-20.177c0.343-8.673-21.368,11.808-23.044,6.265c-1.676-5.544,19.261-18.662,16.15-25.039
				c-3.111-6.378-15.763,16.061-19.368,13.038c-3.605-3.024,11.001-23.928,2.203-25.536c-8.799-1.607-7.269,17.624-10.337,21.534
				c-3.068,3.91-2.884-18.496-8.123-16.775s3.735,23.294,0.192,26.2c-3.544,2.905-8.823-16.255-14.77-11.834
				c-5.948,4.421,9.388,16.649,7.924,22.354c-1.463,5.704-11.416-11.34-16.754-6.829
				C380.748,321.888,393.848,347.184,410.745,350.919z"/>
			<path style="fill:none;stroke:#2C7C78;stroke-width:1.233;stroke-linecap:round;stroke-miterlimit:10;" d="M425.791,288.952
				c0,0-9.138,36.665-20.313,70.227"/>
			<path style="fill:none;stroke:#2C7C78;stroke-width:1.233;stroke-linecap:round;stroke-miterlimit:10;" d="M443.953,317.954
				c0,0-25.032,12.359-33.232,23.614c0,0,0.305-20.051-12.474-33.773"/>
			<path style="fill:none;stroke:#2C7C78;stroke-width:1.233;stroke-linecap:round;stroke-miterlimit:10;" d="M438.049,301.974
				c0,0-18.669,17.814-24.525,31.128c0,0,1.521-24.078-2.369-36.802"/>
			<path style="fill:none;stroke:#2C7C78;stroke-width:1.233;stroke-linecap:round;stroke-miterlimit:10;" d="M447.514,336.082
				c0,0-33.852,5.608-38.105,11.213c0,0-9.369-21.009-21.005-26.617"/>
		</g>
		<g>
			<path style="fill:#68BCBC;" d="M421.089,336.439c10.337-7.797,36.767-21.959,47.178-12.115
				c12.005,11.351-31.869,15.457-31.869,15.457s28.725-0.265,29.133,12.81s-32.342-3.517-32.342-3.517s17.551,8.317,11.484,13.216
				s-30.046-15.957-36.206-11.484C402.306,355.278,414.003,341.784,421.089,336.439z"/>
			<path style="fill:none;stroke:#4CA5A2;stroke-width:1.233;stroke-linecap:round;stroke-miterlimit:10;" d="M410.354,348.411
				c10.446-8.657,22.687-15.46,35.789-19.087c4.812-1.332,9.748-2.223,14.729-2.6"/>
			<path style="fill:none;stroke:#4CA5A2;stroke-width:1.233;stroke-linecap:round;stroke-miterlimit:10;" d="M410.38,348.72
				c15.465-6.182,33.431-5.654,47.934,1.992"/>
			<path style="fill:none;stroke:#4CA5A2;stroke-width:1.233;stroke-linecap:round;stroke-miterlimit:10;" d="M410.462,348.92
				c10.025-0.35,19.878,3.007,28.221,8.433"/>
		</g>
		<g>
			<path style="fill:#4CA5A2;" d="M406.401,355.072c1.796-5.271,7.987-9.096,12.797-11.072c11.772-4.836,30.836-8.896,39.762,3.32
				c2.842,3.89,3.721,9.143,2.299,13.747c-2.597,8.408-11.984,12.237-19.981,13.391c-10.692,1.544-25.792-0.7-32.892-9.807
				c-1.226-1.573-2.176-3.414-2.422-5.393C405.78,357.777,405.955,356.38,406.401,355.072z"/>
			<path style="fill:none;stroke:#2C7C78;stroke-width:1.233;stroke-linecap:round;stroke-miterlimit:10;" d="M408.002,358.194
				c0,0,32.81-8.847,50.781-2.792"/>
			<path style="fill:none;stroke:#2C7C78;stroke-width:1.233;stroke-linecap:round;stroke-miterlimit:10;" d="M451.483,364.244
				c0,0-8.487-10.251-13.293-10.707c0,0,6.835-6.706,12.034-8.215"/>
			<path style="fill:none;stroke:#2C7C78;stroke-width:1.233;stroke-linecap:round;stroke-miterlimit:10;" d="M437.985,341.476
				c0,0-9.646,6.795-9.861,12.81c0,0,8.609,8.498,11.84,15.24"/>
			<path style="fill:none;stroke:#2C7C78;stroke-width:1.233;stroke-linecap:round;stroke-miterlimit:10;" d="M421.117,345.154
				c0,0-3.722,7.343-3.15,11c0,0,5.406,7.408,8.304,14.06"/>
		</g>
		<g>
			<path style="fill:#68BCBC;" d="M250.953,337.184c-3.048-12.16-14.353-38.902-28.183-37.815
				c-15.948,1.253,14.615,31.024,14.615,31.024s-21.483-17.666-29.741-8.062c-8.258,9.604,26.508,17.015,26.508,17.015
				s-18.282-4.405-16.689,2.975c1.593,7.38,32.342,6.245,34.265,13.361C253.651,362.8,253.043,345.52,250.953,337.184z"/>
			<path style="fill:none;stroke:#4CA5A2;stroke-width:1.1938;stroke-linecap:round;stroke-miterlimit:10;" d="M251.763,352.732
				c-2.608-12.875-7.695-25.443-15.362-36.143c-2.816-3.93-5.994-7.603-9.517-10.915"/>
			<path style="fill:none;stroke:#4CA5A2;stroke-width:1.1938;stroke-linecap:round;stroke-miterlimit:10;" d="M251.555,352.949
				c-7.894-14.062-21.753-24.587-37.33-27.645"/>
			<path style="fill:none;stroke:#4CA5A2;stroke-width:1.1938;stroke-linecap:round;stroke-miterlimit:10;" d="M251.372,353.05
				c-7.341-6.359-16.806-9.821-26.393-10.805"/>
		</g>
		<g>
			<path style="fill:#4CA5A2;" d="M256.36,355.702c-1.739-5.103-7.733-8.807-12.391-10.721c-11.398-4.682-29.856-8.613-38.499,3.215
				c-2.752,3.767-3.603,8.853-2.226,13.31c2.514,8.141,11.603,11.848,19.346,12.966c10.353,1.495,24.973-0.677,31.848-9.496
				c1.188-1.523,2.107-3.305,2.345-5.222C256.961,358.322,256.791,356.968,256.36,355.702z"/>
			<path style="fill:none;stroke:#2C7C78;stroke-width:1.1938;stroke-linecap:round;stroke-miterlimit:10;" d="M254.81,358.725
				c0,0-31.768-8.566-49.168-2.703"/>
			<path style="fill:none;stroke:#2C7C78;stroke-width:1.1938;stroke-linecap:round;stroke-miterlimit:10;" d="M212.709,364.582
				c0,0,8.218-9.926,12.871-10.367c0,0-6.618-6.493-11.652-7.954"/>
			<path style="fill:none;stroke:#2C7C78;stroke-width:1.1938;stroke-linecap:round;stroke-miterlimit:10;" d="M225.779,342.538
				c0,0,9.34,6.579,9.548,12.403c0,0-8.336,8.228-11.464,14.757"/>
			<path style="fill:none;stroke:#2C7C78;stroke-width:1.1938;stroke-linecap:round;stroke-miterlimit:10;" d="M242.111,346.099
				c0,0,3.604,7.11,3.05,10.651c0,0-5.234,7.173-8.04,13.613"/>
		</g>
		<g>
			<polygon style="fill:#9BCFEA;" points="108.019,302.853 80.311,309.25 72.662,276.098 84.663,273.33 100.37,269.701 
				102.261,277.887 			"/>
			<polygon style="fill:#8BBDDB;" points="102.261,277.887 84.927,278.722 84.663,273.33 100.37,269.701 			"/>
		</g>
		<g>
			<polygon style="fill:#9BCFEA;" points="271.809,168.952 248.751,182.265 212.286,203.322 186.963,159.454 246.486,125.093 
				266.085,159.029 			"/>
			<polygon style="fill:#8BBDDB;" points="271.809,168.952 248.751,182.265 246.264,161.388 266.085,159.029 			"/>
		</g>
		<polygon style="fill:#9BCFEA;" points="353.002,221.712 286.844,229.582 257.934,233.023 249.953,165.928 345.029,154.625 
			352.763,219.71 		"/>
		<polygon style="fill:#8BBDDB;" points="353.002,221.712 286.844,229.582 297.814,202.163 352.763,219.71 		"/>
		
			<rect x="86.132" y="231.38" transform="matrix(0.9988 -0.0482 0.0482 0.9988 -12.0666 5.3144)" style="fill:#9BCFEA;" width="36.242" height="43.366"/>
		
			<rect x="122.484" y="161.893" transform="matrix(0.8169 0.5768 -0.5768 0.8169 137.1631 -49.012)" style="fill:#9BCFEA;" width="46.563" height="59.213"/>
		<g>
			<path style="fill:#F2A668;" d="M322.566,262.782L322.566,262.782c-0.339-2.017-2.019-3.407-4.117-3.407h-20.17
				c-2.098,0-4.104,1.39-4.917,3.407l0,0c-0.813,2.017-2.82,3.407-4.917,3.407h-12.952c-2.594,0-4.945,2.103-5.25,4.698
				l-11.524,98.072c-0.305,2.595,1.551,4.698,4.146,4.698h143.358c2.595,0,4.945-2.103,5.25-4.698l11.524-98.072
				c0.305-2.595-1.551-4.698-4.146-4.698h-92.168C324.585,266.189,322.905,264.799,322.566,262.782z"/>
			
				<rect x="299.512" y="206.968" transform="matrix(-0.3108 0.9505 -0.9505 -0.3108 699.2795 24.625)" style="fill:#9BCFEA;" width="82.399" height="117.756"/>
			<path style="fill:#FFB878;" d="M243.851,273.145c-2.594,0-4.334,1.967-3.886,4.394l16.939,91.724
				c0.448,2.426,2.915,4.394,5.509,4.394h143.358c2.594,0,4.334-1.967,3.886-4.394l-16.939-91.724
				c-0.448-2.427-2.915-4.394-5.509-4.394H243.851z"/>
		</g>
		<g>
			<path style="fill:#B72A46;" d="M143.647,342.481c0,0-0.538,7.074,13.712,9.574s11.25-58.25,11.25-58.25l-18.25,7.5
				L143.647,342.481z"/>
			<g>
				<path style="fill:#EF6E4B;" d="M151.443,284.966c-7.103,2.225-9.34,9.653-14.609,27.478c0,0-16.964,10.512-21.412,10.034
					l1.473,3.313c0,0,17.549-0.614,23.286-3.496c4.513-2.267,10.051-13.714,12.304-19.655
					C154.738,296.698,151.443,284.966,151.443,284.966z"/>
				<path style="fill:#CE364C;" d="M148.679,285.539c-4.541,1.227-12.272,21.599-12.272,21.599s3.068,3.804,9.695,4.295
					C152.729,311.924,148.679,285.539,148.679,285.539z"/>
				<path style="fill:#0C476B;" d="M146.348,343.275c0,0-50.684-10.243-54.857,2.274c-4.173,12.518,18.408,25.526,55.96,25.526
					s33.134-28.962,33.134-28.962L146.348,343.275z"/>
				<path style="fill:#105E99;" d="M144.482,350.631c3.628-3.01,39.278-7.739,39.278-7.739s0.986,19.886-8.574,25.483
					c-9.56,5.597-20.577,4.93-28.327,3.18C131.578,368.105,140.854,353.641,144.482,350.631z"/>
				<path style="fill:#F2A668;" d="M183.673,344.846c1.13-12.411,5.856-47.83,5.52-49.575c-1.067-5.517-9.62-12.941-20.992-13.512
					c-1.242-0.062-2.418-0.089-3.526-0.071c-9.079,0.098-14.047,2.665-17.465,7.424c-0.984,1.372-2.595,6.028-2.951,12.344
					c-1.34,23.763,2.088,41.819,2.088,41.819C152.915,349.916,183.673,344.846,183.673,344.846z"/>
				<path style="fill:#F24052;" d="M156.778,291.921c-1.718,8.468-8.713,46.634-13.131,50.561c0,0-0.614-19.144-0.491-33.134
					c0.123-13.99,3.191-22.212,5.522-23.808c2.332-1.595,10.308-3.436,10.308-3.436L156.778,291.921z"/>
				<g>
					<path style="fill:#EF6E4B;" d="M107.083,324.126v1.28h8.987l1.17-2.097c0,0-4.122-1.226-7.78-0.13c0,0-1.541,0.546-1.783,0.886
						C107.677,324.065,107.415,323.841,107.083,324.126z"/>
					<path style="fill:#FF8B66;" d="M118.28,324.515c-0.384,0.623-1.425,1.49-2.623,1.311c-1.199-0.179-2.611,0.01-2.611,0.01
						s-0.342-0.504,0.514-0.706c0.856-0.201,2.226-0.919,2.269-1.484l-2.397-0.359c0,0-1.199,0.103-1.712,0.359
						c-0.514,0.257-0.642,1.156-1.242,1.681c-0.599,0.525-0.942,0.309-0.942,0.309s0.387-1.481,0.723-1.881
						c0.125-0.148,0.604-0.468,0.604-0.468s-0.985,0.098-1.327,0.716c-0.342,0.618-0.332,1.001-0.471,1.324
						c-0.098,0.229-0.471,0.645-0.856,0.508c0,0,0.342-1.574,0.471-2.189c0,0-0.577,1.834-0.728,1.99
						c-0.292,0.302-0.514-0.044-0.385-1.633c0,0-0.342,0.696-0.3,1.324c0,0-0.471,0.312-0.514-0.197
						c-0.043-0.509-0.129-1.484,0.899-1.484c0,0,0.599-1.18,1.498-0.77c0,0,1.413-0.77,2.14-0.924s1.712,0,1.712,0
						S119.945,321.808,118.28,324.515z"/>
				</g>
				<g>
					<path style="fill:#FF8B66;" d="M138.951,324.103c-0.152,1.56-3.342,1.408-3.342,1.408s-1.809,0.294-2.763,0.33
						c0,0,0.089,1.159-0.428,1.23c-0.526,0.071-0.749-1.854-0.749-1.854s-0.945,2.005-1.328,1.854
						c-0.374-0.151-0.303-2.157-0.303-2.157s-1.114,0-1.186,0.303c-0.036,0.143-0.223,0.686-0.463,1.159
						c-0.232,0.472-0.508,0.856-0.731,0.704c-0.446-0.303-0.223-2.683-0.223-2.683s-0.588,0-0.811,0.071
						c-0.223,0.08-0.749,1.783-1.488,0.749c0,0,0.098-1.711,1.488-2.754c0.677-0.508,3.262-1.292,4.75-1.408
						c2.175-0.16,5.08,0.312,5.624,0.597C137.543,321.946,139.103,322.543,138.951,324.103z"/>
					<path style="fill:#EF6E4B;" d="M131.672,325.214c0,0-0.231-1.216,0.376-1.434c0.608-0.218,1.722-0.385,1.722-0.385
						s-1.331,0.006-2.142,0.282c-0.811,0.275-0.523,2.599-0.523,2.599L131.672,325.214z"/>
					<path style="fill:#EF6E4B;" d="M131.375,322.846c-0.16,0.044-0.82,0.258-1.034,0.552c-0.25,0.33-0.303,1.515-0.303,1.515
						s-1.114,0-1.186,0.303c-0.036,0.143-0.223,0.686-0.463,1.159c0.018-0.205,0.125-1.774,0.651-2.594
						C129.548,322.971,131.117,322.855,131.375,322.846z"/>
					<path style="fill:#EF6E4B;" d="M128.853,322.837c0,0-1.266,0.775-1.417,1.56c0,0-0.588,0-0.811,0.071
						C127.258,322.873,128.853,322.837,128.853,322.837z"/>
					<path style="fill:#EF6E4B;" d="M138.951,324.103c-0.152,1.56-3.342,1.408-3.342,1.408s-1.809,0.294-2.763,0.33
						c-0.134-0.446,0.161-0.642,0.196-1.007c0,0,1.346,0.027,1.604-0.223c0,0,1.257,0.223,1.818-0.143
						C137.017,324.103,138.06,325.404,138.951,324.103z"/>
				</g>
				<path style="fill:#8BBDDB;" d="M109.408,361.748c0,0-13.99,0-17.426-0.245c-3.436-0.246-3.927,5.645,2.209,8.099
					c6.136,2.454,11.536,4.663,18.654,0.982L109.408,361.748z"/>
				<path style="fill:#6097B2;" d="M135.241,369.173c0,0-0.368-6.811,5.891-7.916c0,0,1.657-4.97,9.756,2.025
					c4.536,3.917,12.333,6.811,9.02,9.572C156.594,375.616,144.077,370.461,135.241,369.173z"/>
				<path style="fill:#105E99;" d="M109.408,361.748c0,0,45.161-17.426,60.378-18.899c15.217-1.473,17.426,8.59,5.4,16.445
					c-12.027,7.854-63.815,11.536-63.815,11.536S105.972,366.902,109.408,361.748z"/>
				<path style="fill:#CE364C;" d="M172.793,280.078c-4.234-2.025-13.315-0.675-15.524,1.166c-2.209,1.841-4.541,5.522-4.541,5.522
					l3.191-2.945l0.859,8.1c0,0,0.736-11.781,17.181-7.486L172.793,280.078z"/>
				<g>
					<path style="fill:#FF8B66;" d="M154.812,270.466c1.516,4.388,4.372,6.591,7.33,7.336c4.507,1.142,9.272-1.066,10.047-4.115
						c0.381-1.489,0.383-3.876,0.032-6.416c-0.026-0.202-0.057-0.415-0.088-0.628c-0.088-0.628-0.215-1.254-0.343-1.88
						c-0.941-4.243-2.806-8.202-5.461-8.482C157.088,255.304,150.979,259.42,154.812,270.466z"/>
					<path style="fill:#1A4850;" d="M163.177,265.892c0.161,0.629,0.575,1.067,0.924,0.978c0.35-0.089,0.503-0.672,0.342-1.301
						c-0.161-0.629-0.575-1.067-0.924-0.978C163.169,264.68,163.016,265.262,163.177,265.892z"/>
					<path style="fill:#1A4850;" d="M168.605,263.754c0.161,0.629,0.575,1.067,0.924,0.978c0.35-0.089,0.503-0.672,0.342-1.301
						c-0.161-0.629-0.575-1.067-0.924-0.978C168.597,262.542,168.444,263.125,168.605,263.754z"/>
					<path style="fill:#DD774E;" d="M168.031,265.58c0,0,1.938,2.072,2.963,1.412c1.025-0.66,0.866,2.22-2.473,2.112
						C168.521,269.104,167.34,267.833,168.031,265.58z"/>
					<path style="fill:#ED7D66;" d="M161.339,268.739c-0.029,0.533,0.487,0.994,1.153,1.031c0.666,0.037,1.23-0.365,1.26-0.898
						c0.029-0.533-0.487-0.995-1.153-1.031C161.933,267.804,161.369,268.206,161.339,268.739z"/>
					<path style="fill:#ED7D66;" d="M170.668,266.386c0.253,0.449,0.901,0.558,1.467,0.259c-0.096-0.628-0.213-1.258-0.352-1.883
						c-0.19,0.021-0.376,0.084-0.554,0.184C170.65,265.281,170.4,265.927,170.668,266.386z"/>
					<g>
						<path style="fill:#B72A46;" d="M161.765,263.036c0.044-0.017,0.083-0.047,0.114-0.087c0.63-0.839,1.898-0.957,1.912-0.958
							c0.143-0.013,0.251-0.139,0.238-0.283c-0.013-0.144-0.139-0.25-0.283-0.238c-0.061,0.005-1.517,0.142-2.286,1.166
							c-0.087,0.115-0.063,0.279,0.053,0.366C161.588,263.059,161.684,263.069,161.765,263.036z"/>
					</g>
					<path style="fill:#B72A46;" d="M158.183,261.671c1.607,4.712-1.294,9.293-1.294,9.293l1.706,3.953l0.194,1.351
						c0,0-3.568-2.703-4.347-3.688c-3.795-4.794-4.359-10.33-3.009-10.655C151.433,261.926,157.638,260.073,158.183,261.671z"/>
					<path style="fill:#FF8B66;" d="M157.104,269.555c0,0-2.392-1.68-3.755,0.077c-1.363,1.757,2.516,4.981,4.317,4.361
						C159.467,273.372,157.104,269.555,157.104,269.555z"/>
					<path style="fill:#1A4850;" d="M170.201,270.414c-0.399,0.644-2.448,1.042-3.068,1.013c-0.432-0.02,0.317,0.892,1.12,0.859
						C170.28,272.203,170.201,270.414,170.201,270.414z"/>
					<g>
						<path style="fill:#B72A46;" d="M169.754,259.891c0.081-0.032,0.145-0.104,0.161-0.197c0.025-0.143-0.069-0.278-0.211-0.303
							c-1.261-0.224-2.42,0.669-2.468,0.706c-0.113,0.089-0.133,0.253-0.045,0.366c0.089,0.114,0.255,0.134,0.367,0.045
							c0.011-0.007,1.026-0.789,2.053-0.604C169.661,259.914,169.71,259.908,169.754,259.891z"/>
					</g>
					<path style="fill:#B72A46;" d="M158.01,261.863c0,0-0.358-2.066,1.217-3.012c1.575-0.946,5.96-0.602,5.96-0.602l2.915-1.438
						c0,0,2.23-6.057-4.806-4.778l1.185,0.859c0,0-1.403-1.519-7.826,1.424c-6.423,2.943-7.208,6.526-5.232,9.02
						C153.4,265.833,158.01,261.863,158.01,261.863z"/>
				</g>
				<path style="fill:#EF6E4B;" d="M169.286,276.967c0,0-0.113,5.565,2.096,7.835c0.128,0.132-4.594,4.328-11.403,1.84
					c0,0,1.298-8.057-2.727-12.564c0,0,1.012-0.011,1.093-1.178C158.346,272.901,161.598,279.236,169.286,276.967z"/>
				<path style="fill:#F24052;" d="M167.915,285.048c0,0,1.012,3.927-0.706,7.241c0,0-0.736,40.989,2.822,54.856
					c0,0,8.959,4.295,14.358,4.295c0,0,0.245-16.076,1.104-21.476c0.859-5.4,7.731-30.312,2.454-39.27
					c-5.277-8.959-14.113-7.363-14.113-7.363L167.915,285.048z"/>
				<path style="fill:#CE364C;" d="M172.793,280.078c0,0-1.565,3.59-4.878,4.97c0,0,2.117,2.393,2.761,4.694
					c0,0,5.338-3.313,6.719-5.983C177.395,283.76,174.818,280.262,172.793,280.078z"/>
				<path style="fill:#FF8B66;" d="M184.557,288.242c-5.458-1.199-17.342,25.053-15.708,30.793c1.634,5.739,6.239,8.062,9.358,3.261
					c3.12-4.801,9.359-18.913,10.101-24.409C189.052,292.391,184.557,288.242,184.557,288.242z"/>
				<path style="fill:#FF8B66;" d="M170.247,314.109c0,0,6.337,5.448,4.624,10.73c0,0-7.416,6.352-38.096,0.584v-3.974
					C136.775,321.45,150.888,319.164,170.247,314.109z"/>
				<path style="fill:#CE364C;" d="M169.541,309.224c0,0,6.504-20.494,13.254-21.844c6.75-1.35,7.977,13.622,1.841,26.876
					C184.636,314.255,178.009,307.629,169.541,309.224z"/>
			</g>
			<g>
				<g>
					<path style="fill:#11393D;" d="M140.539,327.496h-31.186c-0.38,0-0.688-0.308-0.688-0.688v-0.826h32.562v0.826
						C141.226,327.188,140.918,327.496,140.539,327.496z"/>
					<path style="fill:#11393D;" d="M127.232,327.496H96.046c-0.38,0-0.688-0.308-0.688-0.688v-0.826h32.562v0.826
						C127.92,327.188,127.612,327.496,127.232,327.496z"/>
					<path style="fill:#11393D;" d="M125.197,325.982H95.358c-0.928,0-1.746-0.746-1.828-1.666l-2.006-22.62
						c-0.081-0.92,0.605-1.666,1.532-1.666h29.839c0.928,0,1.746,0.746,1.828,1.666l2.006,22.62
						C126.811,325.236,126.125,325.982,125.197,325.982z"/>
					<path style="fill:#164353;" d="M124.046,325.982H94.206c-0.928,0-1.746-0.746-1.828-1.666l-2.006-22.62
						c-0.082-0.92,0.604-1.666,1.532-1.666h29.84c0.928,0,1.746,0.746,1.828,1.666l2.006,22.62
						C125.66,325.236,124.974,325.982,124.046,325.982z"/>
				</g>
				<g>
					<polygon style="fill:#BC8861;" points="81.992,373.656 88.875,330.289 158.413,330.289 165.296,373.656 167.533,373.656 
						160.298,328.08 86.99,328.08 79.755,373.656 					"/>
				</g>
				<g>
					<polygon style="fill:#F2A668;" points="59.902,373.656 66.785,330.289 136.323,330.289 143.206,373.656 145.443,373.656 
						138.208,328.08 64.9,328.08 57.665,373.656 					"/>
				</g>
				<rect x="63.45" y="327.344" style="fill:#FFB878;" width="99.956" height="2.945"/>
			</g>
		</g>
	</g>
</g>
<g id="DESIGNED_BY_FREEPIK">
	<g>
		<g id="XMLID_319_">
			<g id="XMLID_338_">
				<path id="XMLID_346_" style="fill:#A3B5C4;" d="M260.104,465.466c-0.433,0.442-0.804,0.931-1.108,1.453l-0.466-0.241
					c-0.066-0.298-0.349-0.503-0.658-0.467c-0.331,0.039-0.568,0.339-0.529,0.67c0.039,0.331,0.339,0.567,0.67,0.529
					c0.065-0.008,0.127-0.026,0.184-0.053l0.451,0.234c-0.251,0.554-0.433,1.139-0.539,1.744l0.746,0.131
					c0.23-1.306,0.85-2.506,1.792-3.472L260.104,465.466z"/>
				<path id="XMLID_345_" style="fill:#A3B5C4;" d="M265.592,463.163c-0.171,0-0.341,0.006-0.51,0.018l-0.073-0.627
					c0.188-0.148,0.296-0.389,0.266-0.645c-0.046-0.393-0.402-0.674-0.796-0.628c-0.392,0.047-0.674,0.402-0.628,0.796
					c0.03,0.254,0.19,0.461,0.405,0.563l0.073,0.624c-0.714,0.116-1.403,0.332-2.06,0.646l0.327,0.684
					c0.934-0.447,1.941-0.674,2.995-0.674c0.496,0,0.993,0.054,1.475,0.158l0.161-0.741
					C266.692,463.222,266.143,463.163,265.592,463.163z"/>
				<path id="XMLID_344_" style="fill:#A3B5C4;" d="M272.194,465.711c0.331-0.041,0.566-0.342,0.525-0.673
					c-0.04-0.331-0.342-0.566-0.672-0.525c-0.31,0.038-0.535,0.304-0.53,0.608l-0.416,0.363c-0.418-0.43-0.89-0.813-1.408-1.139
					l-0.403,0.641c1.134,0.715,2.02,1.727,2.563,2.926l0.691-0.313c-0.251-0.555-0.567-1.072-0.942-1.545l0.402-0.352
					C272.064,465.716,272.129,465.719,272.194,465.711z"/>
				<path id="XMLID_343_" style="fill:#A3B5C4;" d="M265.044,473.372c-0.386,0.023-0.774,0.034-1.157,0.034
					c-0.88,0-1.732-0.061-2.478-0.179c-0.391-0.063-0.847-0.155-1.27-0.292c1.046,1.86,3.069,3.125,5.389,3.125
					c2.855,0,5.262-1.916,5.949-4.504c-0.682,0.449-1.506,0.825-2.459,1.122C267.839,473.047,266.464,473.286,265.044,473.372z"/>
				<path id="XMLID_339_" style="fill:#A3B5C4;" d="M265.592,464.68c-3.353,0-6.079,2.666-6.079,5.943
					c0,0.426,0.046,0.849,0.137,1.262c0.674,0.482,2.706,0.89,5.348,0.73c2.879-0.173,5.297-0.957,6.672-2.158
					c-0.005-0.195-0.021-0.391-0.045-0.582C271.244,466.913,268.65,464.68,265.592,464.68z M263.433,471.194
					c-1.021,0-1.85-0.83-1.85-1.85c0-1.02,0.829-1.85,1.85-1.85c1.02,0,1.85,0.83,1.85,1.85
					C265.282,470.364,264.452,471.194,263.433,471.194z M268.17,470.286c-0.75,0-1.36-0.61-1.36-1.36s0.61-1.36,1.36-1.36
					s1.36,0.61,1.36,1.36S268.92,470.286,268.17,470.286z"/>
			</g>
			<path id="XMLID_336_" style="fill:#A3B5C4;" d="M281.596,466.547c-0.295-0.116-0.806-0.31-1.383-0.237
				c-0.551,0.068-0.844,0.34-0.844,1.006v0.866h2.227v1.718h-2.227v5.454h-1.932V469.9h-1.34v-1.718h1.34v-0.888
				c0-1.681,0.895-2.783,2.568-2.783c0.643,0,1.157,0.122,1.59,0.309V466.547z"/>
			<path id="XMLID_334_" style="fill:#A3B5C4;" d="M286.298,469.879c-0.177-0.03-0.357-0.047-0.526-0.047
				c-0.896,0-1.51,0.548-1.51,1.614v3.907h-1.932v-7.172h1.873v0.785c0.451-0.674,1.14-0.978,2.021-0.978
				c0.414,0,0.848,0.128,1.094,0.337L286.298,469.879z"/>
			<path id="XMLID_331_" style="fill:#A3B5C4;" d="M293.965,471.757c0,0.222-0.015,0.488-0.037,0.651h-5.084
				c0.207,1.036,0.933,1.487,1.843,1.487c0.621,0,1.295-0.251,1.814-0.688l1.132,1.243c-0.814,0.747-1.851,1.088-3.057,1.088
				c-2.198,0-3.723-1.495-3.723-3.753c0-2.257,1.48-3.797,3.626-3.797C292.544,467.989,293.958,469.522,293.965,471.757z
				 M288.851,471.091h3.175c-0.177-0.918-0.732-1.437-1.561-1.437C289.554,469.654,289.02,470.202,288.851,471.091z"/>
			<path id="XMLID_328_" style="fill:#A3B5C4;" d="M301.618,471.757c0,0.222-0.015,0.488-0.037,0.651h-5.084
				c0.207,1.036,0.932,1.487,1.843,1.487c0.621,0,1.295-0.251,1.813-0.688l1.132,1.243c-0.814,0.747-1.851,1.088-3.057,1.088
				c-2.198,0-3.723-1.495-3.723-3.753c0-2.257,1.48-3.797,3.626-3.797C300.197,467.989,301.611,469.522,301.618,471.757z
				 M296.504,471.091h3.176c-0.178-0.918-0.733-1.437-1.563-1.437C297.207,469.654,296.674,470.202,296.504,471.091z"/>
			<path id="XMLID_325_" style="fill:#A3B5C4;" d="M309.964,471.765c0,2.153-1.495,3.774-3.471,3.774
				c-0.963,0-1.644-0.378-2.109-0.933v3.708h-1.925v-10.133h1.888v0.792c0.466-0.584,1.154-0.984,2.139-0.984
				C308.469,467.989,309.964,469.61,309.964,471.765z M304.287,471.765c0,1.132,0.748,1.976,1.843,1.976
				c1.14,0,1.851-0.881,1.851-1.976c0-1.096-0.711-1.977-1.851-1.977C305.035,469.788,304.287,470.632,304.287,471.765z"/>
			<path id="XMLID_322_" style="fill:#A3B5C4;" d="M313.067,465.836c0,0.695-0.54,1.229-1.235,1.229
				c-0.696,0-1.229-0.533-1.229-1.229c0-0.696,0.533-1.244,1.229-1.244C312.527,464.592,313.067,465.14,313.067,465.836z
				 M312.809,475.354h-1.932v-7.172h1.932V475.354z"/>
			<path id="XMLID_320_" style="fill:#A3B5C4;" d="M316.032,470.735l2.701-2.554h2.369l-3.48,3.375l3.501,3.797h-2.376l-2.716-2.901
				v2.901h-1.932v-10.657h1.932V470.735z"/>
		</g>
		<g>
			<path style="fill:#A3B5C4;" d="M184.413,475.289v-1.055c-0.527,0.718-1.392,1.23-2.388,1.23c-1.846,0-3.149-1.406-3.149-3.706
				c0-2.256,1.289-3.721,3.149-3.721c0.952,0,1.816,0.469,2.388,1.245v-3.765h1.099v9.771H184.413z M184.413,473.37v-3.208
				c-0.396-0.615-1.245-1.143-2.124-1.143c-1.421,0-2.27,1.172-2.27,2.739c0,1.567,0.85,2.725,2.27,2.725
				C183.167,474.483,184.017,473.985,184.413,473.37z"/>
			<path style="fill:#A3B5C4;" d="M186.932,471.744c0-2.051,1.465-3.706,3.486-3.706c2.139,0,3.398,1.67,3.398,3.794v0.278h-5.728
				c0.088,1.333,1.025,2.446,2.549,2.446c0.806,0,1.626-0.322,2.183-0.894l0.527,0.718c-0.703,0.703-1.655,1.084-2.813,1.084
				C188.44,475.465,186.932,473.956,186.932,471.744z M190.403,468.946c-1.509,0-2.256,1.274-2.314,2.358h4.644
				C192.718,470.25,192.015,468.946,190.403,468.946z"/>
			<path style="fill:#A3B5C4;" d="M194.607,474.352l0.571-0.791c0.469,0.542,1.362,1.011,2.329,1.011c1.084,0,1.67-0.513,1.67-1.216
				c0-1.714-4.38-0.659-4.38-3.281c0-1.099,0.952-2.036,2.637-2.036c1.201,0,2.051,0.454,2.622,1.025l-0.513,0.762
				c-0.424-0.513-1.201-0.893-2.109-0.893c-0.967,0-1.567,0.483-1.567,1.113c0,1.553,4.379,0.527,4.379,3.281
				c0,1.186-0.952,2.139-2.783,2.139C196.306,475.465,195.325,475.113,194.607,474.352z"/>
			<path style="fill:#A3B5C4;" d="M201.477,466.471c0-0.41,0.337-0.747,0.732-0.747c0.41,0,0.747,0.337,0.747,0.747
				c0,0.41-0.337,0.732-0.747,0.732C201.814,467.203,201.477,466.881,201.477,466.471z M201.667,475.289v-7.075h1.099v7.075H201.667
				z"/>
			<path style="fill:#A3B5C4;" d="M204.582,477.105l0.557-0.82c0.586,0.703,1.289,0.967,2.3,0.967c1.172,0,2.27-0.571,2.27-2.124
				v-1.011c-0.512,0.718-1.376,1.26-2.373,1.26c-1.845,0-3.149-1.377-3.149-3.662c0-2.271,1.289-3.677,3.149-3.677
				c0.952,0,1.802,0.469,2.373,1.245v-1.069h1.099v6.87c0,2.344-1.641,3.076-3.369,3.076
				C206.237,478.16,205.417,477.926,204.582,477.105z M209.708,473.253v-3.091c-0.381-0.615-1.23-1.143-2.109-1.143
				c-1.421,0-2.271,1.128-2.271,2.695c0,1.553,0.849,2.695,2.271,2.695C208.478,474.41,209.328,473.868,209.708,473.253z"/>
			<path style="fill:#A3B5C4;" d="M217.413,475.289v-4.629c0-1.245-0.629-1.641-1.581-1.641c-0.865,0-1.685,0.527-2.095,1.099v5.171
				h-1.099v-7.075h1.099v1.025c0.498-0.586,1.464-1.201,2.519-1.201c1.48,0,2.256,0.747,2.256,2.285v4.966H217.413z"/>
			<path style="fill:#A3B5C4;" d="M219.933,471.744c0-2.051,1.465-3.706,3.486-3.706c2.138,0,3.398,1.67,3.398,3.794v0.278h-5.728
				c0.088,1.333,1.025,2.446,2.549,2.446c0.805,0,1.626-0.322,2.183-0.894l0.527,0.718c-0.703,0.703-1.655,1.084-2.813,1.084
				C221.441,475.465,219.933,473.956,219.933,471.744z M223.404,468.946c-1.509,0-2.256,1.274-2.314,2.358h4.643
				C225.718,470.25,225.015,468.946,223.404,468.946z"/>
			<path style="fill:#A3B5C4;" d="M233.35,475.289v-1.055c-0.527,0.718-1.392,1.23-2.388,1.23c-1.845,0-3.149-1.406-3.149-3.706
				c0-2.256,1.289-3.721,3.149-3.721c0.952,0,1.817,0.469,2.388,1.245v-3.765h1.098v9.771H233.35z M233.35,473.37v-3.208
				c-0.396-0.615-1.245-1.143-2.124-1.143c-1.421,0-2.27,1.172-2.27,2.739c0,1.567,0.85,2.725,2.27,2.725
				C232.105,474.483,232.954,473.985,233.35,473.37z"/>
			<path style="fill:#A3B5C4;" d="M239.692,475.289v-9.771h1.099v3.765c0.572-0.776,1.421-1.245,2.388-1.245
				c1.846,0,3.15,1.465,3.15,3.721c0,2.3-1.304,3.706-3.15,3.706c-0.996,0-1.86-0.513-2.388-1.23v1.055H239.692z M242.9,474.483
				c1.436,0,2.285-1.157,2.285-2.725c0-1.567-0.85-2.739-2.285-2.739c-0.864,0-1.728,0.527-2.109,1.143v3.208
				C241.171,473.985,242.036,474.483,242.9,474.483z"/>
			<path style="fill:#A3B5C4;" d="M247.528,477.062c0.161,0.073,0.425,0.117,0.601,0.117c0.483,0,0.805-0.161,1.055-0.747
				l0.468-1.069l-2.959-7.148h1.187l2.358,5.801l2.344-5.801h1.201l-3.545,8.511c-0.425,1.025-1.143,1.421-2.08,1.436
				c-0.234,0-0.601-0.044-0.806-0.102L247.528,477.062z"/>
		</g>
	</g>
</g>
</svg>
